PathFileType	4	(X/Y/Z)	 2.6Hz3min.trc
DataRate	CameraRate	NumFrames	NumMarkers	Units	OrigDataRate	OrigDataStartFrame	OrigNumFrames
200	200	9	39	m	200	501	1000
Frame#	Time	C7			LSH			RSH			MAN			RASI			LASI			HIPR			HIPL			RPSI			LPSI			COX			RTHI1			RTHI2			RTHI3			RTHI4			RLKN			RMKN			RSHA1			RSHA2			RSHA3			RSHA4			RHEEL			RMET5			RMET1			RTOE			LTHI1			LTHI2			LTHI3			LTHI4			LLKN			LMKN			LSHA1			LSHA2			LSHA3			LSHA4			LHEEL			LMET5			LMET1			LTOE			
		X1	Y1	Z1	X2	Y2	Z2	X3	Y3	Z3	X4	Y4	Z4	X5	Y5	Z5	X6	Y6	Z6	X7	Y7	Z7	X8	Y8	Z8	X9	Y9	Z9	X10	Y10	Z10	X11	Y11	Z11	X12	Y12	Z12	X13	Y13	Z13	X14	Y14	Z14	X15	Y15	Z15	X16	Y16	Z16	X17	Y17	Z17	X18	Y18	Z18	X19	Y19	Z19	X20	Y20	Z20	X21	Y21	Z21	X22	Y22	Z22	X23	Y23	Z23	X24	Y24	Z24	X25	Y25	Z25	X26	Y26	Z26	X27	Y27	Z27	X28	Y28	Z28	X29	Y29	Z29	X30	Y30	Z30	X31	Y31	Z31	X32	Y32	Z32	X33	Y33	Z33	X34	Y34	Z34	X35	Y35	Z35	X36	Y36	Z36	X37	Y37	Z37	X38	Y38	Z38	X39	Y39	Z39	
501	2.5050	-0.299039	1.598767	-0.518750	-0.279678	1.558278	-0.758890	-0.225753	1.559609	-0.313960	-0.156909	1.523633	-0.540536	-0.176885	1.066821	-0.418908	-0.195059	1.070809	-0.656423	-0.244860	1.119728	-0.365480	-0.275529	1.130604	-0.692949	-0.361905	1.101516	-0.464690	-0.368943	1.108048	-0.572182	-0.372950	1.099868	-0.519586	-0.236039	0.838944	-0.331021	-0.218583	0.782940	-0.321240	-0.155709	0.799229	-0.328024	-0.166788	0.858600	-0.339852	-0.172071	0.493286	-0.347293	-0.162192	0.484152	-0.450542	-0.264639	0.378554	-0.302148	-0.288602	0.342628	-0.305265	-0.219022	0.354011	-0.326133	-0.237328	0.318185	-0.327030	-0.441707	0.069269	-0.374362	-0.263666	0.024859	-0.301402	-0.224110	0.042399	-0.398121	-0.187893	0.029345	-0.396212	-0.251803	0.815299	-0.732101	-0.229739	0.759365	-0.742226	-0.167831	0.778428	-0.747237	-0.181880	0.836387	-0.739040	-0.171087	0.500276	-0.717019	-0.141499	0.492686	-0.627351	-0.323134	0.371129	-0.726370	-0.338818	0.334027	-0.720197	-0.282072	0.313832	-0.738000	-0.273285	0.356912	-0.742074	-0.445548	0.069608	-0.654080	-0.282639	0.028277	-0.747898	-0.226358	0.040571	-0.663915	-0.185680	0.028104	-0.676422	
502	2.5100	-0.299334	1.600108	-0.518561	-0.279506	1.560184	-0.758768	-0.225377	1.561246	-0.313907	-0.157145	1.525000	-0.540483	-0.176865	1.068634	-0.418716	-0.194835	1.072930	-0.656620	-0.245025	1.121644	-0.365397	-0.275862	1.133352	-0.692871	-0.361843	1.102982	-0.464837	-0.368738	1.109286	-0.572249	-0.372804	1.101256	-0.519719	-0.235928	0.840317	-0.330873	-0.218424	0.784344	-0.321047	-0.155572	0.800600	-0.328259	-0.166698	0.859945	-0.340132	-0.172277	0.494554	-0.347325	-0.162904	0.485739	-0.450507	-0.265078	0.379817	-0.302045	-0.289029	0.343859	-0.305127	-0.219440	0.355270	-0.325974	-0.237743	0.319392	-0.326871	-0.441429	0.070108	-0.374247	-0.263583	0.024890	-0.301382	-0.224009	0.042363	-0.398107	-0.187836	0.029344	-0.396268	-0.251396	0.816796	-0.732463	-0.229200	0.760919	-0.742635	-0.167264	0.780067	-0.747083	-0.181442	0.837969	-0.738781	-0.171721	0.501305	-0.716868	-0.142301	0.493770	-0.627474	-0.323820	0.371942	-0.726307	-0.339450	0.334801	-0.720130	-0.282696	0.314683	-0.738010	-0.273973	0.357772	-0.742078	-0.445409	0.070270	-0.654326	-0.282550	0.028253	-0.747921	-0.226293	0.040580	-0.663957	-0.185657	0.028102	-0.676403	
503	2.5150	-0.299668	1.601771	-0.518412	-0.279284	1.562468	-0.758677	-0.225042	1.563262	-0.313889	-0.157394	1.526631	-0.540438	-0.176672	1.070718	-0.418537	-0.194368	1.075380	-0.656725	-0.245034	1.123883	-0.365378	-0.275520	1.136400	-0.692911	-0.361620	1.104687	-0.465050	-0.368318	1.110843	-0.572445	-0.372489	1.102931	-0.519949	-0.235947	0.841986	-0.330711	-0.218474	0.786023	-0.320783	-0.155620	0.802172	-0.328291	-0.166699	0.861500	-0.340267	-0.172990	0.496020	-0.347056	-0.163914	0.487368	-0.450188	-0.265920	0.381160	-0.301746	-0.289802	0.345143	-0.304841	-0.220198	0.356683	-0.325580	-0.238436	0.320738	-0.326489	-0.441176	0.070996	-0.374015	-0.263509	0.024902	-0.301328	-0.223949	0.042330	-0.398056	-0.187835	0.029341	-0.396303	-0.251328	0.818700	-0.732728	-0.229205	0.762811	-0.742958	-0.167210	0.781858	-0.747155	-0.181316	0.839751	-0.738765	-0.173313	0.502516	-0.716868	-0.143775	0.494862	-0.627603	-0.325028	0.372727	-0.726221	-0.340545	0.335517	-0.720034	-0.283772	0.315569	-0.738063	-0.275185	0.358684	-0.742108	-0.445349	0.070832	-0.654637	-0.282489	0.028225	-0.747964	-0.226289	0.040585	-0.664004	-0.185703	0.028098	-0.676390	
504	2.5200	-0.300022	1.603755	-0.518320	-0.279040	1.565090	-0.758609	-0.224776	1.565643	-0.313905	-0.157656	1.528508	-0.540401	-0.176318	1.073024	-0.418383	-0.193667	1.078090	-0.656722	-0.244894	1.126384	-0.365423	-0.274681	1.139527	-0.693007	-0.361242	1.106637	-0.465309	-0.367700	1.112717	-0.572762	-0.372023	1.104890	-0.520251	-0.236119	0.843955	-0.330533	-0.218771	0.787977	-0.320479	-0.155884	0.803933	-0.328122	-0.166809	0.863259	-0.340239	-0.174284	0.497683	-0.346511	-0.165211	0.489021	-0.449595	-0.267143	0.382574	-0.301290	-0.290914	0.346483	-0.304423	-0.221288	0.358245	-0.324957	-0.239398	0.322223	-0.325900	-0.440932	0.071952	-0.373660	-0.263439	0.024904	-0.301227	-0.223921	0.042312	-0.397975	-0.187882	0.029340	-0.396319	-0.251613	0.820930	-0.732890	-0.229751	0.764952	-0.743174	-0.167668	0.783737	-0.747399	-0.181512	0.841674	-0.738959	-0.175752	0.503927	-0.717016	-0.145848	0.496013	-0.627741	-0.326698	0.373506	-0.726121	-0.342046	0.336200	-0.719930	-0.285246	0.316511	-0.738151	-0.276847	0.359670	-0.742154	-0.445354	0.071327	-0.654975	-0.282452	0.028193	-0.748020	-0.226336	0.040590	-0.664057	-0.185811	0.028093	-0.676385	
505	2.5250	-0.300383	1.606045	-0.518288	-0.278801	1.568023	-0.758560	-0.224598	1.568355	-0.313947	-0.157930	1.530715	-0.540358	-0.175828	1.075522	-0.418258	-0.192750	1.081031	-0.656612	-0.244609	1.129093	-0.365519	-0.273282	1.142613	-0.693091	-0.360719	1.108832	-0.465587	-0.366911	1.114901	-0.573170	-0.371421	1.107130	-0.520600	-0.236450	0.846219	-0.330361	-0.219328	0.790199	-0.320169	-0.156372	0.805886	-0.327765	-0.167039	0.865226	-0.340045	-0.176146	0.499570	-0.345714	-0.166757	0.490715	-0.448768	-0.268725	0.384088	-0.300709	-0.292325	0.347900	-0.303890	-0.222674	0.359967	-0.324140	-0.240609	0.323861	-0.325138	-0.440685	0.073000	-0.373174	-0.263362	0.024870	-0.301124	-0.223919	0.042302	-0.397866	-0.187976	0.029340	-0.396316	-0.252249	0.823388	-0.732945	-0.230797	0.767267	-0.743274	-0.168608	0.785654	-0.747769	-0.182042	0.843674	-0.739318	-0.178896	0.505539	-0.717292	-0.148411	0.497279	-0.627920	-0.328760	0.374295	-0.726008	-0.343894	0.336897	-0.719815	-0.287061	0.317518	-0.738271	-0.278898	0.360737	-0.742219	-0.445398	0.071799	-0.655325	-0.282434	0.028160	-0.748077	-0.226421	0.040596	-0.664118	-0.185969	0.028088	-0.676390	
506	2.5300	-0.300745	1.608618	-0.518308	-0.278586	1.571229	-0.758521	-0.224521	1.571370	-0.314010	-0.158217	1.533282	-0.540297	-0.175221	1.078193	-0.418168	-0.191657	1.084159	-0.656405	-0.244168	1.131975	-0.365655	-0.271503	1.145716	-0.693238	-0.360065	1.111282	-0.465868	-0.365989	1.117396	-0.573644	-0.370702	1.109648	-0.520968	-0.236933	0.848753	-0.330204	-0.220135	0.792665	-0.319867	-0.157083	0.808017	-0.327251	-0.167396	0.867381	-0.339700	-0.178502	0.501706	-0.344716	-0.168507	0.492484	-0.447755	-0.270616	0.385764	-0.300018	-0.293991	0.349433	-0.303275	-0.224305	0.361871	-0.323175	-0.242025	0.325677	-0.324232	-0.440423	0.074169	-0.372583	-0.263278	0.024804	-0.301036	-0.223940	0.042296	-0.397728	-0.188113	0.029342	-0.396296	-0.253215	0.825990	-0.732893	-0.232285	0.769691	-0.743264	-0.169981	0.787577	-0.748239	-0.182897	0.845707	-0.739804	-0.182611	0.507355	-0.717656	-0.151351	0.498694	-0.628170	-0.331136	0.375133	-0.725868	-0.346031	0.337644	-0.719686	-0.289166	0.318619	-0.738412	-0.281273	0.361904	-0.742294	-0.445457	0.072272	-0.655648	-0.282431	0.028129	-0.748131	-0.226533	0.040608	-0.664189	-0.186164	0.028089	-0.676411	
507	2.5350	-0.301087	1.611418	-0.518365	-0.278417	1.574676	-0.758487	-0.224557	1.574654	-0.314086	-0.158502	1.536139	-0.540229	-0.174523	1.081023	-0.418115	-0.190428	1.087441	-0.656122	-0.243577	1.134998	-0.365814	-0.269461	1.148840	-0.693448	-0.359303	1.113980	-0.466140	-0.364973	1.120188	-0.574133	-0.369889	1.112430	-0.521335	-0.237567	0.851541	-0.330080	-0.221172	0.795362	-0.319584	-0.158004	0.810318	-0.326621	-0.167880	0.869726	-0.339233	-0.181271	0.504091	-0.343569	-0.170414	0.494375	-0.446599	-0.272730	0.387618	-0.299256	-0.295846	0.351125	-0.302592	-0.226123	0.363977	-0.322101	-0.243607	0.327695	-0.323212	-0.440131	0.075487	-0.371900	-0.263189	0.024716	-0.300958	-0.223978	0.042307	-0.397571	-0.188290	0.029349	-0.396254	-0.254469	0.828694	-0.732742	-0.234144	0.772185	-0.743146	-0.171732	0.789500	-0.748770	-0.184038	0.847762	-0.740377	-0.186735	0.509386	-0.718072	-0.154567	0.500285	-0.628495	-0.333767	0.376083	-0.725694	-0.348401	0.338506	-0.719523	-0.291528	0.319858	-0.738577	-0.283912	0.363212	-0.742378	-0.445512	0.072814	-0.655957	-0.282435	0.028099	-0.748180	-0.226657	0.040633	-0.664277	-0.186386	0.028098	-0.676446	
508	2.5400	-0.301410	1.614413	-0.518444	-0.278307	1.578337	-0.758452	-0.224713	1.578177	-0.314172	-0.158802	1.539339	-0.540141	-0.173749	1.084013	-0.418099	-0.189096	1.090842	-0.655796	-0.242846	1.138131	-0.365977	-0.267410	1.151961	-0.693625	-0.358455	1.116927	-0.466394	-0.363897	1.123237	-0.574622	-0.369005	1.115465	-0.521681	-0.238347	0.854545	-0.330005	-0.222405	0.798280	-0.319328	-0.159106	0.812801	-0.325918	-0.168485	0.872256	-0.338683	-0.184313	0.506713	-0.342356	-0.172453	0.496415	-0.445351	-0.274995	0.389685	-0.298455	-0.297837	0.353022	-0.301870	-0.228071	0.366314	-0.320939	-0.245307	0.329929	-0.322113	-0.439794	0.076980	-0.371137	-0.263094	0.024625	-0.300874	-0.224029	0.042327	-0.397395	-0.188503	0.029364	-0.396189	-0.255952	0.831495	-0.732495	-0.236300	0.774750	-0.742934	-0.173794	0.791444	-0.749340	-0.185427	0.849858	-0.741015	-0.191118	0.511647	-0.718503	-0.157970	0.502085	-0.628885	-0.336585	0.377222	-0.725468	-0.350960	0.339552	-0.719318	-0.294105	0.321295	-0.738761	-0.286759	0.364699	-0.742469	-0.445553	0.073504	-0.656310	-0.282439	0.028072	-0.748222	-0.226786	0.040676	-0.664389	-0.186630	0.028117	-0.676495	
509	2.5450	-0.301716	1.617566	-0.518532	-0.278262	1.582183	-0.758412	-0.224982	1.581903	-0.314263	-0.159116	1.542881	-0.540032	-0.172926	1.087148	-0.418114	-0.187710	1.094329	-0.655455	-0.241963	1.141383	-0.366139	-0.265359	1.155067	-0.693854	-0.357544	1.120106	-0.466619	-0.362787	1.126515	-0.575091	-0.368067	1.118734	-0.522002	-0.239237	0.857749	-0.329963	-0.223785	0.801391	-0.319090	-0.160350	0.815457	-0.325174	-0.169195	0.874962	-0.338077	-0.187476	0.509577	-0.341133	-0.174580	0.498657	-0.444078	-0.277362	0.392012	-0.297608	-0.299902	0.355150	-0.301124	-0.230089	0.368884	-0.319734	-0.247075	0.332404	-0.320965	-0.439405	0.078660	-0.370315	-0.262993	0.024519	-0.300811	-0.224086	0.042359	-0.397199	-0.188747	0.029387	-0.396100	-0.257602	0.834423	-0.732172	-0.238671	0.777432	-0.742638	-0.176093	0.793457	-0.749930	-0.187006	0.852031	-0.741689	-0.195632	0.514147	-0.718909	-0.161490	0.504118	-0.629306	-0.339528	0.378611	-0.725187	-0.353650	0.340848	-0.719057	-0.296836	0.322969	-0.738951	-0.289763	0.366416	-0.742569	-0.445562	0.074393	-0.656728	-0.282436	0.028049	-0.748258	-0.226914	0.040738	-0.664534	-0.186892	0.028150	-0.676556	
